<?xml version="1.0" ?><svg id="Layer_1" style="enable-background:new 0 0 70 70;" version="1.1" viewBox="0 0 70 70" xml:space="preserve" xmlns="http://www.w3.org/2000/svg" xmlns:xlink="http://www.w3.org/1999/xlink"><style type="text/css">
	.st0{fill:#D7D2D1;}
	.st1{fill:#5EA3D7;}
</style><g><path class="st1" d="M19.2672253,34.0150146H18.027235c-0.1300049,0-0.2600098,0.0100098-0.3900146,0.0199585   c-1.3699951,0.1100464-2.6199951,0.8000488-3.4699707,1.9400024c-0.1400146,0.1900024-0.289978,0.3900146-0.4700317,0.6000366   c-0.0099487,0.0100098-0.0199585,0.0199585-0.0199585,0.0299683c-0.1600342,0.1900024-0.3400269,0.3900146-0.5400391,0.5900269   c-0.0499878,0.0599976-0.1099854,0.1099854-0.1699829,0.1699829c-0.1499634,0.1600342-0.3200073,0.3200073-0.5,0.4799805   c-0.0800171,0.0700073-0.1699829,0.1400146-0.25,0.210022c-0.1699829,0.1500244-0.3499756,0.289978-0.5299683,0.4199829   c-0.1100464,0.0800171-0.2200317,0.1500244-0.3300171,0.2300415c-0.1799927,0.1199951-0.3699951,0.2399902-0.5700073,0.3599854   c-0.1199951,0.0700073-0.25,0.1400146-0.3800049,0.2000122C10.2072277,39.375,9.9972668,39.4749756,9.777235,39.5650024   C9.6372204,39.625,9.4972668,39.6849976,9.3472424,39.7349854c-0.2299805,0.0800171-0.4699707,0.1500244-0.710022,0.210022   c-0.1499634,0.039978-0.289978,0.0800171-0.4499512,0.1099854c-0.0500488,0.0100098-0.1000366,0.0100098-0.1500244,0.0200195   v-5.2999878c0-3.4000244,1.2800293-6.6000366,3.6300049-9.0500488h7.5999756V34.0150146z M31.277235,34.0150146H21.2672253   v-8.2900391H31.277235V34.0150146z M43.2972565,34.0150146H33.2772369v-8.2900391h10.0200195V34.0150146z M55.317276,34.0150146   H45.2972565v-8.2900391H55.317276V34.0150146z M63.8372345,19.6749878H21.1372204   c-3.9799805,0-7.7299805,1.5300293-10.5699463,4.3200073c-0.0100098,0.0100098-0.0200195,0.0100098-0.0200195,0.0200195   c-0.9899902,0.9699707-1.8200073,2.0599976-2.4899902,3.2299805H4.3972301c-0.4099729,0-0.779968,0.25-0.9299924,0.6300049   l-1.3599854,3.3900146c-0.210022,0.5199585,0.039978,1.0999756,0.5499878,1.2999878   c0.1300049,0.0499878,0.25,0.0700073,0.3800049,0.0700073c0.3900146,0,0.7700195-0.2300415,0.9199829-0.6199951   l1.1100461-2.7700195h2.0199585c-0.6799927,1.7399902-1.0499878,3.5999756-1.0499878,5.5300293v6.8299561   c0,2.5100098,2.039978,4.5599976,4.5499878,4.5599976h2.0300293c-0.0599976-0.3299561-0.0900269-0.6599731-0.1000366-1v-0.1499634   c0-4.0300293,3.2800293-7.3099976,7.3099976-7.3099976c4.0300293,0,7.3099976,3.2799683,7.3099976,7.3099976   c0,0.3599854-0.0299683,0.7099609-0.0899658,1.0599976h17.080019c-0.0599976-0.3500366-0.0900269-0.7000122-0.0900269-1.0599976   c0-4.0300293,3.2800293-7.3099976,7.2999878-7.3099976c4.0300293,0,7.3099976,3.2799683,7.3099976,7.3099976v0.1399536   c-0.0100098,0.3400269-0.0499878,0.6800537-0.0999756,1.0100098h5.289978c2.2800293,0,4.1300049-1.8599854,4.1300049-4.1399536   v-18.210022C67.9672394,21.5349731,66.1172638,19.6749878,63.8372345,19.6749878z M65.9672394,34.0150146H57.317276v-8.2900391   h8.6499634V34.0150146z"/><path class="st0" d="M51.3372345,39.7050171c-2.9199829,0-5.2999878,2.3800049-5.2999878,5.3099976   s2.3800049,5.3099976,5.2999878,5.3099976c2.9100342,0,5.2399902-2.2900391,5.3099976-5.2200317v-0.0899658   C56.6472321,42.085022,54.2672272,39.7050171,51.3372345,39.7050171z M51.4177399,46.1638794h-0.0341797   c-0.5527344,0-1-0.4477539-1-1s0.4472656-1,1-1s1.0166016,0.4477539,1.0166016,1S51.9704742,46.1638794,51.4177399,46.1638794z"/><path class="st0" d="M19.8272228,39.7050171c-2.9299927,0-5.3099976,2.3800049-5.3099976,5.3099976c0,0,0,0.0999756,0,0.1099854   c0.0599976,2.9099731,2.3900146,5.2000122,5.3099976,5.2000122c2.9300537,0,5.3099976-2.3800049,5.3099976-5.3099976   S22.7572765,39.7050171,19.8272228,39.7050171z M19.902113,46.1638794h-0.0351562c-0.5527344,0-1-0.4477539-1-1s0.4472656-1,1-1   s1.0175781,0.4477539,1.0175781,1S20.4548473,46.1638794,19.902113,46.1638794z"/></g></svg>