<?xml version="1.0" encoding="UTF-8" standalone="no"?>
<svg
   xmlns:dc="http://purl.org/dc/elements/1.1/"
   xmlns:cc="http://creativecommons.org/ns#"
   xmlns:rdf="http://www.w3.org/1999/02/22-rdf-syntax-ns#"
   xmlns:svg="http://www.w3.org/2000/svg"
   xmlns="http://www.w3.org/2000/svg"
   xmlns:sodipodi="http://sodipodi.sourceforge.net/DTD/sodipodi-0.dtd"
   xmlns:inkscape="http://www.inkscape.org/namespaces/inkscape"
   enable-background="new 0 0 512 512"
   id="Layer_1"
   version="1.1"
   viewBox="0 0 512 512"
   xml:space="preserve"
   sodipodi:docname="Round.svg"
   inkscape:version="0.92.3 (2405546, 2018-03-11)"><metadata
     id="metadata9"><rdf:RDF><cc:Work
         rdf:about=""><dc:format>image/svg+xml</dc:format><dc:type
           rdf:resource="http://purl.org/dc/dcmitype/StillImage" /></cc:Work></rdf:RDF></metadata><defs
     id="defs7" /><sodipodi:namedview
     pagecolor="#ffffff"
     bordercolor="#666666"
     borderopacity="1"
     objecttolerance="10"
     gridtolerance="10"
     guidetolerance="10"
     inkscape:pageopacity="0"
     inkscape:pageshadow="2"
     inkscape:window-width="1306"
     inkscape:window-height="735"
     id="namedview5"
     showgrid="false"
     inkscape:zoom="0.4609375"
     inkscape:cx="-59.661017"
     inkscape:cy="256"
     inkscape:window-x="52"
     inkscape:window-y="0"
     inkscape:window-maximized="1"
     inkscape:current-layer="Layer_1" /><circle
     cx="256"
     cy="256"
     fill="#D70751"
     id="ellipse"
     r="256" /><path
     d="M354.7,233c0.3,8.6-2.5,12.8-5.1,20.3l-4.6,2.3c-3.8,7.3,0.4,4.7-2.3,10.5  c-5.9,5.2-17.9,16.4-21.7,17.4c-2.8-0.1,1.9-3.3,2.5-4.6c-7.9,5.4-6.3,8.1-18.4,11.4l-0.4-0.8c-29.8,14-71.1-13.7-70.6-51.6  c-0.3,2.4-0.9,1.8-1.6,2.8c-1.5-19.5,9-39,26.8-47.1c17.4-8.6,37.8-5.1,50.2,6.5c-6.8-9-20.4-18.5-36.6-17.6  c-15.8,0.3-30.6,10.3-35.5,21.2c-8.1,5.1-9,19.6-12.6,22.3c-4.7,34.9,8.9,49.9,32.1,67.7c3.6,2.5,1,2.8,1.5,4.7  c-7.7-3.6-14.7-9-20.5-15.7c3.1,4.5,6.4,8.9,10.7,12.3c-7.3-2.4-16.9-17.6-19.8-18.2c12.5,22.4,50.7,39.2,70.7,30.9  c-9.3,0.3-21,0.2-31.4-3.7c-4.4-2.2-10.3-6.9-9.2-7.8c27.3,10.2,55.5,7.7,79.1-11.2c6-4.7,12.6-12.6,14.5-12.7  c-2.9,4.3,0.5,2.1-1.7,5.9c6-9.7-2.6-3.9,6.2-16.7l3.2,4.5c-1.2-8,10-17.7,8.8-30.4c2.6-3.9,2.9,4.2,0.1,13.1c3.8-9.9,1-11.5,2-19.6  c1,2.7,2.4,5.7,3.1,8.6c-2.5-9.6,2.5-16.1,3.7-21.7c-1.2-0.5-3.8,4.2-4.4-7.1c0.1-4.9,1.4-2.6,1.9-3.8c-1-0.6-3.5-4.3-5-11.5  c1.1-1.7,3,4.4,4.5,4.6c-1-5.7-2.7-10.1-2.7-14.5c-4.4-9.3-1.6,1.2-5.2-4c-4.7-14.7,3.9-3.4,4.5-10.1c7.1,10.3,11.2,26.4,13.1,33  c-1.4-8.1-3.7-16-6.6-23.5c2.2,0.9-3.5-16.7,2.8-5c-6.8-24.8-28.9-48-49.2-58.9c2.5,2.3,5.6,5.1,4.5,5.6c-10.1-6-8.3-6.5-9.8-9  c-8.2-3.4-8.8,0.3-14.2,0c-15.5-8.2-18.5-7.4-32.8-12.5l0.7,3c-10.3-3.4-12,1.3-23.1,0c-0.7-0.5,3.6-1.9,7.1-2.4  c-10,1.3-9.5-2-19.2,0.4c2.4-1.7,4.9-2.8,7.5-4.2c-8.1,0.5-19.4,4.7-15.9,0.9c-13.2,5.9-36.8,14.2-50,26.6l-0.4-2.8  c-6,7.3-26.4,21.7-28,31.1l-1.6,0.4c-3.1,5.3-5.2,11.4-7.7,16.8c-4.1,7-6,2.7-5.4,3.8c-8.1,16.4-12.1,30.2-15.6,41.5  c2.5,3.7,0.1,22.3,1,37.1c-4.1,73.4,51.5,144.7,112.3,161.2c8.9,3.2,22.1,3.1,33.4,3.4c-13.3-3.8-15-2-28-6.5  c-9.3-4.4-11.4-9.4-18-15.2l2.6,4.6c-13-4.6-7.5-5.7-18.1-9l2.8-3.6c-4.2-0.3-11.1-7.1-13-10.8l-4.6,0.2c-5.5-6.8-8.5-11.7-8.3-15.5  l-1.5,2.7c-1.7-2.9-20.3-25.6-10.7-20.3c-1.8-1.6-4.2-2.7-6.8-7.4l2-2.2c-4.6-6-8.6-13.7-8.3-16.2c2.5,3.4,4.2,4,5.9,4.6  c-11.8-29.2-12.4-1.6-21.3-29.7l1.9-0.2c-1.4-2.2-2.3-4.5-3.5-6.9l0.8-8.2c-8.5-9.8-2.4-41.6-1.1-59.1c0.8-7.1,7.1-14.7,11.8-26.5  l-2.9-0.5c5.5-9.6,31.5-38.6,43.5-37.1c5.8-7.3-1.2,0-2.3-1.9c12.8-13.2,16.8-9.3,25.4-11.7c9.3-5.5-8,2.2-3.6-2.1  c16.1-4.1,11.4-9.3,32.4-11.4c2.2,1.3-5.1,1.9-7,3.6c13.4-6.6,42.4-5.1,61.3,3.6c21.9,10.2,46.4,40.4,47.4,68.9l1.1,0.3  c-0.6,11.3,1.7,24.4-2.2,36.4L354.7,233"
     fill="#FFFFFF"
     id="logo" /><path
     style="fill:#d67474;stroke-width:2.16949153;fill-opacity:1"
     d="M 230.8339,509.7646 C 163.48704,500.11995 116.73185,477.48187 74.113972,433.8834 -46.728175,310.26078 -12.585158,106.04174 141.88475,28.527223 240.78499,-21.101891 357.59729,-2.2007745 435.89903,76.100966 570.25551,210.45744 515.95459,437.59553 334.98333,498.22646 304.39919,508.4731 257.83621,513.63154 230.8339,509.7646 Z m 42.19661,-93.74672 c -1.13356,-1.00439 -7.77385,-3.04916 -14.75621,-4.54394 -8.7529,-1.87379 -15.15307,-4.9144 -20.61017,-9.79152 -4.35324,-3.89055 -9.00456,-6.68937 -10.33626,-6.21959 -1.3317,0.46981 -7.52497,-4.06495 -13.76282,-10.0772 -6.23785,-6.01227 -12.20373,-10.93139 -13.25752,-10.93139 -1.05379,0 -3.64696,-2.64904 -5.7626,-5.88674 -2.11564,-3.23771 -6.14676,-8.36313 -8.95803,-11.38983 -7.56896,-8.14898 -15.9035,-27.60038 -16.4672,-38.43168 -0.27518,-5.28755 -7.00487,-13.71548 -10.95178,-13.71548 -3.75246,0 -7.21294,-8.91316 -9.83648,-25.33587 -1.27009,-7.95049 -2.82045,-15.28255 -3.44523,-16.29346 -0.62477,-1.01092 -0.0534,-12.66682 1.26977,-25.90204 1.77907,-17.79573 3.79657,-26.80871 7.74521,-34.60097 2.93672,-5.79534 5.33949,-12.05192 5.33949,-13.90351 0,-5.40401 26.70716,-30.65928 35.48551,-33.5564 4.34738,-1.43476 7.90432,-3.963 7.90432,-5.61831 0,-3.74393 5.15547,-6.49 15.7891,-8.41011 4.50773,-0.81396 7.72244,-2.24599 7.14377,-3.18229 -2.5224,-4.08133 15.67852,-9.56977 35.0065,-10.55611 16.38142,-0.83598 22.78934,-0.16393 35.63245,3.73705 13.57548,4.12342 17.43297,6.53699 28.98965,18.13832 17.05143,17.11732 24.78289,32.75895 26.84065,54.30167 2.15196,22.52904 -0.20957,46.3321 -4.9398,49.79094 -2.02815,1.48302 -3.9352,4.38383 -4.23791,6.44625 -0.75795,5.1643 -14.44009,18.91094 -18.82223,18.91094 -1.96742,0 -5.27357,1.87453 -7.34698,4.16562 -4.90817,5.42347 -22.90015,9.66426 -35.14574,8.28401 -21.60872,-2.43563 -41.31215,-22.28602 -46.02427,-46.36763 -4.3479,-22.2202 3.68178,-39.02727 23.52384,-49.23825 10.17093,-5.23409 13.75551,-5.98541 24.3112,-5.09555 7.87866,0.66418 14.78204,2.75329 18.98305,5.74466 3.63099,2.5855 6.6018,3.66428 6.6018,2.39729 0,-4.39807 -17.7308,-15.13813 -27.38056,-16.5852 -14.97277,-2.24531 -28.30913,2.50255 -39.56721,14.08625 -21.83079,22.46225 -25.08347,54.52569 -7.82501,77.1355 7.31396,9.58182 6.37926,13.38045 -1.53097,6.2218 -2.18209,-1.97476 -3.96743,-2.58723 -3.96743,-1.36106 0,3.88506 19.47711,20.3606 29.1044,24.6192 13.99311,6.18982 29.85086,9.08583 36.09546,6.59189 4.85543,-1.93911 4.56782,-2.14608 -3.36935,-2.42436 -4.77289,-0.16727 -12.58306,-1.58486 -17.35594,-3.15006 -8.26845,-2.71154 -7.85484,-2.79255 8.76466,-1.71635 12.50033,0.80944 20.85916,0.13624 29.50053,-2.37585 13.88761,-4.03723 41.46076,-23.08003 43.09075,-29.75968 0.59661,-2.44489 1.94727,-4.32928 3.00149,-4.18755 1.0542,0.14167 3.78836,-3.92272 6.07592,-9.03214 2.28753,-5.10941 4.91427,-9.80506 5.83715,-10.43475 2.54813,-1.73865 8.69475,-29.04038 7.09582,-31.51779 -0.77013,-1.19322 -1.50218,-6.07458 -1.62682,-10.84746 -0.46197,-17.69221 -0.92982,-20.37192 -4.11238,-23.55448 -3.58786,-3.58785 -4.32521,-7.90314 -1.35038,-7.90314 3.24359,0 6.21117,4.96553 10.09881,16.89785 2.0561,6.31076 4.20118,11.0113 4.76685,10.44563 0.56568,-0.56567 -0.60737,-5.95359 -2.60675,-11.97315 -1.99936,-6.01956 -3.0111,-12.91106 -2.24829,-15.31446 3.28787,-10.35918 -26.50487,-48.47014 -43.41391,-55.53519 -3.99008,-1.66717 -7.86723,-4.02228 -8.61585,-5.23358 -0.74861,-1.2113 -4.60423,-2.20236 -8.56802,-2.20236 -3.96379,0 -13.77579,-2.47253 -21.80447,-5.49452 -8.02866,-3.02198 -16.4533,-4.905533 -18.72137,-4.18567 -5.40073,1.71412 -28.20632,-1.156202 -26.83359,-3.377291 0.58335,-0.943913 -3.08871,-1.196782 -8.16016,-0.561928 -10.71702,1.341572 -33.896,10.652939 -46.80624,18.802819 -4.93484,3.11523 -9.81336,5.66405 -10.84116,5.66405 -4.07837,0 -28.38702,27.94945 -34.01977,39.11504 -3.29291,6.5274 -6.69913,12.35615 -7.56937,12.95276 -2.6835,1.83972 -8.03447,13.47188 -12.60405,27.39922 -6.23696,19.00924 -5.31938,74.44582 1.6273,98.31526 17.79687,61.15178 69.05401,111.02588 120.51788,117.26603 19.26534,2.336 21.71221,2.37956 19.41695,0.34584 z"
     id="path3714"
     inkscape:connector-curvature="0" /></svg>